<svg width="17" height="14" viewBox="0 0 17 14" fill="none" xmlns="http://www.w3.org/2000/svg">
<path fill-rule="evenodd" clip-rule="evenodd" d="M0 13C0 12.8011 0.0790178 12.6103 0.21967 12.4697C0.360322 12.329 0.551088 12.25 0.75 12.25H15.75C15.9489 12.25 16.1397 12.329 16.2803 12.4697C16.421 12.6103 16.5 12.8011 16.5 13C16.5 13.1989 16.421 13.3897 16.2803 13.5303C16.1397 13.671 15.9489 13.75 15.75 13.75H0.75C0.551088 13.75 0.360322 13.671 0.21967 13.5303C0.0790178 13.3897 0 13.1989 0 13ZM0 7C0 6.80109 0.0790178 6.61032 0.21967 6.46967C0.360322 6.32902 0.551088 6.25 0.75 6.25H15.75C15.9489 6.25 16.1397 6.32902 16.2803 6.46967C16.421 6.61032 16.5 6.80109 16.5 7C16.5 7.19891 16.421 7.38968 16.2803 7.53033C16.1397 7.67098 15.9489 7.75 15.75 7.75H0.75C0.551088 7.75 0.360322 7.67098 0.21967 7.53033C0.0790178 7.38968 0 7.19891 0 7ZM0 1C0 0.801088 0.0790178 0.610322 0.21967 0.46967C0.360322 0.329018 0.551088 0.25 0.75 0.25H15.75C15.9489 0.25 16.1397 0.329018 16.2803 0.46967C16.421 0.610322 16.5 0.801088 16.5 1C16.5 1.19891 16.421 1.38968 16.2803 1.53033C16.1397 1.67098 15.9489 1.75 15.75 1.75H0.75C0.551088 1.75 0.360322 1.67098 0.21967 1.53033C0.0790178 1.38968 0 1.19891 0 1Z" fill="black" fill-opacity="0.5"/>
</svg>
