<svg width="15" height="16" viewBox="0 0 15 16" fill="none" xmlns="http://www.w3.org/2000/svg">
<g clip-path="url(#clip0)">
<path fill-rule="evenodd" clip-rule="evenodd" d="M9.78934 10.2894C9.87641 10.2022 9.9798 10.133 10.0936 10.0859C10.2074 10.0387 10.3294 10.0144 10.4526 10.0144C10.5758 10.0144 10.6978 10.0387 10.8116 10.0859C10.9254 10.133 11.0288 10.2022 11.1159 10.2894L14.7253 13.8987C14.9012 14.0745 15.0001 14.313 15.0002 14.5617C15.0002 14.8104 14.9015 15.0489 14.7257 15.2248C14.55 15.4007 14.3115 15.4996 14.0628 15.4997C13.8141 15.4998 13.5756 15.4011 13.3997 15.2253L9.79028 11.6159C9.70311 11.5289 9.63396 11.4255 9.58678 11.3116C9.5396 11.1978 9.51532 11.0758 9.51532 10.9526C9.51532 10.8294 9.5396 10.7074 9.58678 10.5936C9.63396 10.4798 9.70311 10.3764 9.79028 10.2894H9.78934Z" fill="#808080"/>
<path fill-rule="evenodd" clip-rule="evenodd" d="M6.09375 11.75C6.77088 11.75 7.44138 11.6166 8.06696 11.3575C8.69255 11.0984 9.26097 10.7186 9.73977 10.2398C10.2186 9.76097 10.5984 9.19255 10.8575 8.56696C11.1166 7.94138 11.25 7.27088 11.25 6.59375C11.25 5.91662 11.1166 5.24612 10.8575 4.62054C10.5984 3.99495 10.2186 3.42653 9.73977 2.94773C9.26097 2.46893 8.69255 2.08912 8.06696 1.83C7.44138 1.57087 6.77088 1.4375 6.09375 1.4375C4.72623 1.4375 3.41472 1.98075 2.44773 2.94773C1.48075 3.91472 0.9375 5.22623 0.9375 6.59375C0.9375 7.96127 1.48075 9.27279 2.44773 10.2398C3.41472 11.2068 4.72623 11.75 6.09375 11.75ZM12.1875 6.59375C12.1875 8.20991 11.5455 9.75988 10.4027 10.9027C9.25988 12.0455 7.70991 12.6875 6.09375 12.6875C4.47759 12.6875 2.92762 12.0455 1.78482 10.9027C0.642018 9.75988 0 8.20991 0 6.59375C0 4.97759 0.642018 3.42762 1.78482 2.28482C2.92762 1.14202 4.47759 0.5 6.09375 0.5C7.70991 0.5 9.25988 1.14202 10.4027 2.28482C11.5455 3.42762 12.1875 4.97759 12.1875 6.59375Z" fill="#808080"/>
</g>
<defs>
<clipPath id="clip0">
<rect width="15" height="15" fill="white" transform="translate(0 0.5)"/>
</clipPath>
</defs>
</svg>
